<svg width="50" height="50" fill="none" xmlns="http://www.w3.org/2000/svg"><path d="M18.75 36.25L36.25 25l-17.5-11.25v22.5zM25 50c-3.458 0-6.708-.657-9.75-1.97-3.042-1.312-5.688-3.093-7.938-5.343s-4.03-4.895-5.342-7.937C.657 31.708 0 28.458 0 25s.657-6.708 1.97-9.75c1.312-3.042 3.093-5.688 5.343-7.938s4.895-4.031 7.937-5.345C18.292.657 21.542 0 25 0s6.708.656 9.75 1.968c3.042 1.313 5.688 3.095 7.938 5.345 2.25 2.25 4.03 4.895 5.342 7.937C49.343 18.292 50 21.542 50 25s-.657 6.708-1.97 9.75c-1.312 3.042-3.093 5.688-5.343 7.938s-4.895 4.03-7.937 5.342C31.708 49.343 28.458 50 25 50z" fill="#F5CE00"/></svg>