<svg width="66" height="66" fill="none" xmlns="http://www.w3.org/2000/svg"><rect width="66" height="66" rx="10" fill="#F8CC48"/><path d="M42.031 33A9.031 9.031 0 1133 23.969 9.044 9.044 0 0142.031 33zM33 21.844a1.063 1.063 0 001.063-1.063v-2.656a1.062 1.062 0 10-2.126 0v2.656A1.063 1.063 0 0033 21.844zm-9.39 3.267a1.075 1.075 0 001.5 0 1.062 1.062 0 000-1.5l-1.872-1.887a1.076 1.076 0 10-1.514 1.514l1.886 1.873zM21.844 33a1.063 1.063 0 00-1.063-1.063h-2.656a1.062 1.062 0 100 2.125h2.656A1.063 1.063 0 0021.844 33zm1.766 7.89l-1.886 1.872a1.076 1.076 0 000 1.514c.206.192.476.301.757.305.282 0 .553-.11.757-.305l1.873-1.886a1.062 1.062 0 00-1.5-1.5zM33 44.155a1.063 1.063 0 00-1.063 1.063v2.656a1.062 1.062 0 102.125 0v-2.656A1.063 1.063 0 0033 44.156zm9.39-3.267a1.062 1.062 0 00-1.5 1.5l1.872 1.887c.204.195.475.304.757.305.281-.004.551-.113.757-.305a1.076 1.076 0 000-1.514l-1.886-1.873zm5.485-8.952h-2.656a1.063 1.063 0 100 2.125h2.656a1.062 1.062 0 100-2.124zm-6.229-6.52a1.037 1.037 0 00.744-.306l1.886-1.873a1.076 1.076 0 00-1.514-1.514l-1.873 1.886a1.062 1.062 0 00.347 1.731c.13.053.27.078.41.075z" fill="#EB4640"/></svg>