<svg width="25" height="26" fill="none" xmlns="http://www.w3.org/2000/svg"><path d="M.533 12.447c0 2.117.553 4.184 1.605 6.005L.433 24.677l6.37-1.67a12.01 12.01 0 005.742 1.462h.005c6.623 0 12.014-5.39 12.017-12.013a11.938 11.938 0 00-3.517-8.498 11.941 11.941 0 00-8.5-3.523C5.927.435.536 5.823.533 12.447z" fill="url(#paint0_linear_89_776)"/><path d="M9.441 7.24c-.233-.517-.478-.527-.7-.536-.18-.008-.388-.008-.595-.008-.208 0-.545.078-.83.39-.285.31-1.088 1.063-1.088 2.593s1.114 3.01 1.27 3.217c.155.207 2.151 3.448 5.312 4.695 2.628 1.036 3.162.83 3.733.778.57-.052 1.84-.753 2.099-1.479.26-.726.26-1.348.181-1.479-.077-.13-.285-.207-.596-.362-.31-.156-1.84-.908-2.125-1.012-.285-.104-.492-.156-.7.156-.207.31-.803 1.011-.984 1.219-.182.207-.363.233-.674.078-.312-.156-1.313-.484-2.502-1.544-.924-.824-1.548-1.842-1.73-2.154-.181-.31-.02-.48.137-.634.14-.14.31-.363.467-.545.155-.181.206-.311.31-.519.104-.207.052-.389-.026-.544-.078-.156-.682-1.694-.959-2.31z" fill="#fff"/><defs><linearGradient id="paint0_linear_89_776" x1="12.5" y1=".435" x2="12.5" y2="24.677" gradientUnits="userSpaceOnUse"><stop stop-color="#57D163"/><stop offset="1" stop-color="#23B33A"/></linearGradient></defs></svg>