<svg width="25" height="25" fill="none" xmlns="http://www.w3.org/2000/svg"><path fill-rule="evenodd" clip-rule="evenodd" d="M23.667 6.445c.174-.55 0-.95-.77-.95h-2.556c-.645 0-.943.35-1.117.725 0 0-1.315 3.203-3.152 5.28-.596.6-.869.8-1.192.8-.174 0-.397-.2-.397-.75V6.42c0-.651-.198-.951-.745-.951H9.717c-.398 0-.646.3-.646.6 0 .626.919.776 1.018 2.528v3.805c0 .826-.147.977-.472.977-.868 0-2.978-3.228-4.244-6.906-.246-.729-.496-1.004-1.142-1.004H1.65c-.745 0-.869.35-.869.725 0 .676.869 4.079 4.046 8.583 2.11 3.076 5.113 4.73 7.819 4.73 1.639 0 1.837-.376 1.837-1.002v-2.327c0-.75.149-.875.67-.875.372 0 1.043.2 2.557 1.676 1.737 1.752 2.035 2.552 3.003 2.552h2.557c.745 0 1.092-.375.894-1.1-.224-.726-1.068-1.777-2.16-3.028-.596-.7-1.49-1.476-1.762-1.852-.372-.5-.273-.7 0-1.15-.025 0 3.103-4.455 3.425-5.958" fill="url(#paint0_linear_89_771)"/><defs><linearGradient id="paint0_linear_89_771" x1="12.5" y1="5.469" x2="12.5" y2="19.531" gradientUnits="userSpaceOnUse"><stop stop-color="#07F"/><stop offset="1" stop-color="#07F"/></linearGradient></defs></svg>