<svg width="26" height="25" fill="none" xmlns="http://www.w3.org/2000/svg"><g clip-path="url(#clip0_89_744)"><path d="M13 0a12.498 12.498 0 00-8.838 21.339A12.499 12.499 0 1021.838 3.66 12.498 12.498 0 0013 0z" fill="#fff"/><path d="M6.159 12.368c3.644-1.588 6.074-2.635 7.289-3.14 3.472-1.444 4.193-1.695 4.664-1.704.103-.001.334.024.484.146a.54.54 0 01.178.339c.015.097.037.319.02.492-.188 1.976-1.003 6.773-1.417 8.987-.174.936-.52 1.25-.853 1.28-.727.068-1.278-.479-1.98-.94-1.1-.72-1.721-1.17-2.79-1.873-1.234-.814-.433-1.26.27-1.991.183-.191 3.383-3.1 3.443-3.364.008-.033.016-.156-.058-.221-.073-.065-.18-.043-.258-.025-.111.025-1.867 1.186-5.274 3.485-.498.342-.949.509-1.355.5-.445-.01-1.305-.252-1.943-.46-.782-.254-1.405-.389-1.35-.82.027-.226.338-.456.93-.691z" fill="url(#paint0_linear_89_744)"/></g><defs><linearGradient id="paint0_linear_89_744" x1="683.945" y1="7.524" x2="683.945" y2="1132.53" gradientUnits="userSpaceOnUse"><stop stop-color="#2AABEE"/><stop offset="1" stop-color="#229ED9"/></linearGradient><clipPath id="clip0_89_744"><path fill="#fff" transform="translate(.5)" d="M0 0h25v25H0z"/></clipPath></defs></svg>