<svg width="26" height="26" fill="none" xmlns="http://www.w3.org/2000/svg"><g clip-path="url(#clip0_89_257)"><path d="M13 0a12.998 12.998 0 00-9.191 22.192A12.998 12.998 0 1022.19 3.808 12.998 12.998 0 0013 0z" fill="url(#paint0_linear_89_257)"/><path d="M5.884 12.863c3.79-1.651 6.318-2.74 7.581-3.265 3.612-1.502 4.361-1.763 4.85-1.772.108-.001.348.025.504.152a.56.56 0 01.185.352c.016.1.039.331.02.511-.194 2.056-1.041 7.044-1.472 9.347-.18.974-.54 1.3-.888 1.332-.755.07-1.328-.498-2.06-.978-1.143-.75-1.789-1.216-2.9-1.948-1.284-.846-.451-1.311.28-2.07.191-.2 3.518-3.225 3.581-3.5.008-.034.017-.162-.06-.23-.076-.067-.188-.044-.269-.026-.116.026-1.942 1.235-5.484 3.625-.518.356-.987.53-1.41.52-.463-.01-1.357-.262-2.02-.478-.813-.264-1.461-.404-1.404-.854.028-.234.351-.473.966-.718z" fill="#fff"/></g><defs><linearGradient id="paint0_linear_89_257" x1="1300" y1="0" x2="1300" y2="2600" gradientUnits="userSpaceOnUse"><stop stop-color="#2AABEE"/><stop offset="1" stop-color="#229ED9"/></linearGradient><clipPath id="clip0_89_257"><path fill="#fff" d="M0 0h26v26H0z"/></clipPath></defs></svg>