<svg width="26" height="27" fill="none" xmlns="http://www.w3.org/2000/svg"><path d="M.555 12.945c0 2.201.574 4.351 1.668 6.246L.45 25.665l6.625-1.738a12.49 12.49 0 005.972 1.52h.006c6.887 0 12.494-5.604 12.497-12.492a12.415 12.415 0 00-3.658-8.839 12.419 12.419 0 00-8.84-3.664C6.164.452.558 6.056.555 12.945" fill="url(#paint0_linear_89_254)"/><path d="M9.819 7.53c-.242-.538-.497-.55-.728-.559-.189-.008-.404-.007-.62-.007a1.19 1.19 0 00-.862.404c-.297.324-1.132 1.107-1.132 2.698 0 1.592 1.159 3.13 1.32 3.346.162.215 2.238 3.585 5.526 4.882 2.732 1.078 3.288.863 3.881.81.593-.055 1.914-.783 2.184-1.538.27-.756.27-1.403.188-1.538-.08-.135-.296-.216-.62-.378-.323-.162-1.913-.944-2.21-1.052-.296-.108-.512-.162-.728.162-.216.324-.835 1.052-1.024 1.268-.188.216-.377.243-.7.081-.324-.162-1.366-.503-2.602-1.605-.962-.858-1.61-1.916-1.8-2.24-.188-.324-.02-.499.143-.66.145-.145.323-.378.485-.567.161-.189.215-.323.323-.54.108-.215.054-.404-.027-.566-.08-.161-.71-1.761-.997-2.4z" fill="#fff"/><defs><linearGradient id="paint0_linear_89_254" x1="13" y1=".452" x2="13" y2="25.665" gradientUnits="userSpaceOnUse"><stop stop-color="#57D163"/><stop offset="1" stop-color="#23B33A"/></linearGradient></defs></svg>