<svg width="26" height="27" fill="none" xmlns="http://www.w3.org/2000/svg"><g clip-path="url(#clip0_89_739)"><path d="M1.033 13.349c0 2.117.553 4.184 1.605 6.006L.933 25.58l6.37-1.67a12.01 12.01 0 005.742 1.461h.005c6.623 0 12.014-5.389 12.017-12.012A11.938 11.938 0 0021.55 4.86a11.941 11.941 0 00-8.5-3.523c-6.623 0-12.014 5.389-12.017 12.012" fill="#fff"/><path d="M9.941 8.143c-.233-.518-.478-.528-.7-.537-.18-.008-.388-.007-.595-.007-.208 0-.545.078-.83.389-.285.311-1.088 1.063-1.088 2.594 0 1.53 1.114 3.009 1.27 3.216.155.208 2.151 3.448 5.312 4.695 2.628 1.036 3.162.83 3.733.778.57-.052 1.84-.752 2.099-1.478.26-.727.26-1.349.181-1.48-.077-.129-.285-.206-.596-.362-.31-.156-1.84-.908-2.125-1.012-.285-.104-.492-.155-.7.156-.207.311-.803 1.011-.984 1.219-.182.208-.363.234-.674.078-.312-.156-1.313-.484-2.502-1.543-.924-.825-1.548-1.843-1.73-2.154-.181-.311-.02-.48.137-.635.14-.14.31-.363.467-.545.155-.181.206-.31.31-.518.104-.208.052-.39-.026-.545-.078-.156-.682-1.694-.959-2.309z" fill="url(#paint0_linear_89_739)"/></g><defs><linearGradient id="paint0_linear_89_739" x1="13.048" y1="7.599" x2="13.048" y2="19.323" gradientUnits="userSpaceOnUse"><stop stop-color="#57D163"/><stop offset="1" stop-color="#23B33A"/></linearGradient><clipPath id="clip0_89_739"><path fill="#fff" transform="translate(.5 .902)" d="M0 0h25v25.195H0z"/></clipPath></defs></svg>