<svg width="62" height="62" fill="none" xmlns="http://www.w3.org/2000/svg"><path d="M24.542 42.625L42.625 31 24.542 19.375v23.25zM31 56.833c-3.573 0-6.932-.678-10.075-2.035-3.143-1.356-5.877-3.196-8.202-5.521-2.325-2.325-4.165-5.06-5.52-8.202C5.846 37.932 5.167 34.573 5.167 31c0-3.574.679-6.932 2.036-10.075 1.355-3.143 3.195-5.877 5.52-8.202 2.325-2.325 5.06-4.166 8.202-5.523C24.068 5.844 27.427 5.166 31 5.166c3.574 0 6.932.678 10.075 2.034 3.143 1.357 5.877 3.198 8.202 5.523 2.325 2.325 4.166 5.059 5.521 8.202 1.357 3.143 2.036 6.501 2.036 10.075 0 3.574-.679 6.932-2.036 10.075-1.355 3.143-3.196 5.877-5.52 8.202-2.326 2.325-5.06 4.165-8.203 5.52-3.143 1.358-6.501 2.036-10.075 2.036z" fill="#F8CC48"/></svg>