<svg width="50" height="50" fill="none" xmlns="http://www.w3.org/2000/svg"><rect width="50" height="50" rx="10" fill="#F8CC48"/><path d="M19.335 31.222c-.935 0-1.738-.237-2.409-.71-.666-.478-1.18-1.165-1.54-2.063-.356-.902-.534-1.987-.534-3.256.004-1.269.184-2.348.54-3.239.36-.893.873-1.575 1.54-2.045.67-.47 1.471-.704 2.403-.704.932 0 1.733.234 2.404.704.67.47 1.183 1.152 1.54 2.046.36.894.54 1.973.54 3.238 0 1.273-.18 2.36-.54 3.261-.357.898-.87 1.584-1.54 2.057-.667.474-1.468.71-2.404.71zm0-1.779c.727 0 1.301-.358 1.722-1.074.424-.72.636-1.778.636-3.176 0-.924-.096-1.7-.29-2.33-.193-.628-.465-1.102-.818-1.42a1.791 1.791 0 00-1.25-.483c-.723 0-1.295.36-1.716 1.08-.42.716-.632 1.767-.636 3.153-.004.928.089 1.708.278 2.341.194.633.466 1.11.819 1.432.352.318.77.477 1.255.477zm6.16-.602v-1.676l4.938-7.801h1.398v2.386h-.852l-3.324 5.267v.091h6.892v1.733h-9.051zM31.048 31v-2.67l.023-.75v-8.216h1.988V31h-2.011z" fill="#EB4640"/></svg>