<svg width="51" height="50" fill="none" xmlns="http://www.w3.org/2000/svg"><rect x=".333" width="50" height="50" rx="10" fill="#F8CC48"/><path d="M20.335 31.222c-.935 0-1.738-.237-2.409-.71-.666-.478-1.18-1.165-1.54-2.063-.356-.902-.534-1.987-.534-3.256.004-1.269.184-2.348.54-3.239.36-.893.873-1.575 1.54-2.045.67-.47 1.471-.704 2.403-.704.932 0 1.733.234 2.404.704.67.47 1.183 1.152 1.54 2.046.36.894.54 1.973.54 3.238 0 1.273-.18 2.36-.54 3.261-.357.898-.87 1.584-1.54 2.057-.667.474-1.468.71-2.404.71zm0-1.779c.727 0 1.301-.358 1.722-1.074.424-.72.636-1.778.636-3.176 0-.924-.096-1.7-.29-2.33-.193-.628-.465-1.102-.818-1.42a1.791 1.791 0 00-1.25-.483c-.723 0-1.295.36-1.716 1.08-.42.716-.632 1.767-.636 3.153-.004.928.089 1.708.278 2.341.194.633.466 1.11.819 1.432.352.318.77.477 1.255.477zm10.507 1.716c-.844 0-1.594-.142-2.25-.426-.651-.284-1.162-.672-1.534-1.165a2.735 2.735 0 01-.545-1.687 2.792 2.792 0 01.318-1.347 3 3 0 01.875-1.023 2.82 2.82 0 011.239-.528v-.08a2.461 2.461 0 01-1.455-.914 2.64 2.64 0 01-.545-1.665 2.65 2.65 0 01.5-1.602c.337-.47.799-.84 1.386-1.108.587-.273 1.258-.41 2.011-.41.747 0 1.411.137 1.995.41.587.269 1.049.638 1.386 1.108.34.47.511 1.003.511 1.602 0 .629-.187 1.184-.562 1.665a2.45 2.45 0 01-1.438.914v.08a2.74 2.74 0 011.228.528 3 3 0 01.875 1.023c.22.41.33.858.33 1.347a2.74 2.74 0 01-.558 1.687c-.37.493-.882.88-1.534 1.165-.647.284-1.392.426-2.233.426zm0-1.625c.436 0 .815-.074 1.137-.221a1.77 1.77 0 00.75-.637c.178-.273.269-.587.272-.943a1.764 1.764 0 00-.29-.983 1.902 1.902 0 00-.766-.676 2.408 2.408 0 00-1.103-.245c-.416 0-.787.082-1.113.245a1.944 1.944 0 00-.773.676 1.724 1.724 0 00-.273.983c-.003.356.084.67.262.943.178.27.428.48.75.63.325.152.708.228 1.147.228zm0-5.301c.356 0 .67-.072.944-.216a1.65 1.65 0 00.653-.602 1.7 1.7 0 00.244-.892 1.66 1.66 0 00-.238-.875 1.54 1.54 0 00-.648-.585 2.083 2.083 0 00-.955-.21c-.367 0-.691.07-.971.21a1.54 1.54 0 00-.648.585c-.151.25-.225.541-.222.875-.003.337.072.634.228.892a1.7 1.7 0 00.653.602c.28.144.6.216.96.216z" fill="#EB4640"/></svg>