<svg width="50" height="50" fill="none" xmlns="http://www.w3.org/2000/svg"><rect width="50" height="50" rx="10" fill="#F8CC48"/><path d="M22.087 19.364V31H19.98v-9.585h-.068l-2.721 1.738v-1.931l2.892-1.858h2.005zm7.256 11.858c-.936 0-1.739-.237-2.41-.71-.666-.478-1.179-1.165-1.539-2.063-.356-.902-.534-1.987-.534-3.256.004-1.269.184-2.348.54-3.239.36-.893.873-1.575 1.54-2.045.67-.47 1.471-.704 2.403-.704.932 0 1.733.234 2.403.704.67.47 1.184 1.152 1.54 2.046.36.894.54 1.973.54 3.238 0 1.273-.18 2.36-.54 3.261-.356.898-.87 1.584-1.54 2.057-.666.474-1.467.71-2.403.71zm0-1.779c.727 0 1.301-.358 1.722-1.074.424-.72.636-1.778.636-3.176 0-.924-.097-1.7-.29-2.33-.193-.628-.466-1.102-.818-1.42a1.791 1.791 0 00-1.25-.483c-.723 0-1.295.36-1.716 1.08-.42.716-.632 1.767-.636 3.153-.004.928.089 1.708.278 2.341.193.633.466 1.11.818 1.432.353.318.771.477 1.256.477z" fill="#EB4640"/></svg>