<svg width="51" height="50" fill="none" xmlns="http://www.w3.org/2000/svg"><rect x=".667" width="50" height="50" rx="10" fill="#F8CC48"/><path d="M20.788 31.222c-.935 0-1.738-.237-2.409-.71-.666-.478-1.18-1.165-1.54-2.063-.356-.902-.534-1.987-.534-3.256.004-1.269.184-2.348.54-3.239.36-.893.873-1.575 1.54-2.045.67-.47 1.471-.704 2.403-.704.932 0 1.733.234 2.404.704.67.47 1.183 1.152 1.54 2.046.36.894.54 1.973.54 3.238 0 1.273-.18 2.36-.54 3.261-.357.898-.87 1.584-1.54 2.057-.667.474-1.468.71-2.404.71zm0-1.779c.728 0 1.302-.358 1.722-1.074.424-.72.636-1.778.636-3.176 0-.924-.096-1.7-.29-2.33-.193-.628-.465-1.102-.818-1.42a1.791 1.791 0 00-1.25-.483c-.723 0-1.295.36-1.716 1.08-.42.716-.632 1.767-.636 3.153-.004.928.09 1.708.279 2.341.193.633.465 1.11.818 1.432.352.318.77.477 1.255.477zm10.547 1.716c-.818 0-1.545-.14-2.182-.42-.632-.28-1.132-.67-1.5-1.17a3.034 3.034 0 01-.585-1.734h2.136c.02.315.124.59.313.824.19.231.441.411.756.54.314.129.666.193 1.056.193.417 0 .786-.072 1.108-.216a1.82 1.82 0 00.756-.613c.182-.262.271-.563.267-.904a1.57 1.57 0 00-.273-.932c-.185-.269-.454-.479-.806-.63-.349-.152-.77-.228-1.262-.228h-1.028v-1.625h1.028c.406 0 .76-.07 1.063-.21.307-.14.547-.337.721-.59a1.52 1.52 0 00.256-.893 1.55 1.55 0 00-.221-.858 1.497 1.497 0 00-.631-.574 2.074 2.074 0 00-.949-.204 2.5 2.5 0 00-.989.193 1.798 1.798 0 00-.733.551 1.397 1.397 0 00-.295.841h-2.029c.016-.651.203-1.224.563-1.716a3.63 3.63 0 011.454-1.159c.607-.28 1.287-.42 2.04-.42.777 0 1.451.145 2.023.437.576.288 1.02.676 1.335 1.165.315.489.472 1.028.472 1.62.004.654-.19 1.204-.58 1.647-.386.443-.894.733-1.522.87v.09c.818.114 1.445.417 1.88.91.44.488.658 1.096.654 1.823a2.92 2.92 0 01-.557 1.75c-.368.511-.875.913-1.523 1.205-.644.291-1.382.437-2.216.437z" fill="#EB4640"/></svg>