<svg width="51" height="50" fill="none" xmlns="http://www.w3.org/2000/svg"><rect x=".333" width="50" height="50" rx="10" fill="#F8CC48"/><path d="M20.335 31.222c-.935 0-1.738-.237-2.409-.71-.666-.478-1.18-1.165-1.54-2.063-.356-.902-.534-1.987-.534-3.256.004-1.269.184-2.348.54-3.239.36-.893.873-1.575 1.54-2.045.67-.47 1.471-.704 2.403-.704.932 0 1.733.234 2.404.704.67.47 1.183 1.152 1.54 2.046.36.894.54 1.973.54 3.238 0 1.273-.18 2.36-.54 3.261-.357.898-.87 1.584-1.54 2.057-.667.474-1.468.71-2.404.71zm0-1.779c.727 0 1.301-.358 1.722-1.074.424-.72.636-1.778.636-3.176 0-.924-.096-1.7-.29-2.33-.193-.628-.465-1.102-.818-1.42a1.791 1.791 0 00-1.25-.483c-.723 0-1.295.36-1.716 1.08-.42.716-.632 1.767-.636 3.153-.004.928.089 1.708.278 2.341.194.633.466 1.11.819 1.432.352.318.77.477 1.255.477zm10.416 1.716c-.757 0-1.435-.142-2.034-.426a3.627 3.627 0 01-1.426-1.182 3.127 3.127 0 01-.557-1.716h2.046c.038.477.244.868.62 1.17.374.3.825.45 1.351.45.413 0 .78-.095 1.103-.284.322-.19.575-.453.761-.79.186-.337.277-.722.273-1.154.004-.44-.09-.83-.279-1.17a2.083 2.083 0 00-.778-.801 2.172 2.172 0 00-1.136-.296 2.706 2.706 0 00-1.029.193 2.105 2.105 0 00-.8.523l-1.904-.312.608-6h6.75v1.761h-5.006l-.335 3.085h.068c.216-.254.52-.464.915-.63.394-.17.825-.256 1.295-.256.705 0 1.333.166 1.887.5.553.33.988.784 1.306 1.363.319.58.478 1.243.478 1.99 0 .768-.178 1.454-.534 2.056a3.779 3.779 0 01-1.472 1.415c-.625.34-1.349.511-2.17.511z" fill="#EB4640"/></svg>