<svg width="50" height="50" fill="none" xmlns="http://www.w3.org/2000/svg"><rect width="50" height="50" rx="10" fill="#F8CC48"/><path d="M21.655 31.222c-.935 0-1.738-.237-2.409-.71-.666-.478-1.18-1.165-1.54-2.063-.355-.902-.533-1.987-.533-3.256.003-1.269.183-2.348.54-3.239.36-.893.872-1.575 1.54-2.045.67-.47 1.47-.704 2.402-.704.932 0 1.733.234 2.404.704.67.47 1.184 1.152 1.54 2.046.36.894.54 1.973.54 3.238 0 1.273-.18 2.36-.54 3.261-.356.898-.87 1.584-1.54 2.057-.667.474-1.468.71-2.404.71zm0-1.779c.728 0 1.302-.358 1.722-1.074.424-.72.637-1.778.637-3.176 0-.924-.097-1.7-.29-2.33-.194-.628-.466-1.102-.819-1.42a1.791 1.791 0 00-1.25-.483c-.723 0-1.295.36-1.715 1.08-.42.716-.633 1.767-.637 3.153-.004.928.09 1.708.279 2.341.193.633.466 1.11.818 1.432.352.318.77.477 1.256.477zm11.104-10.08V31h-2.108v-9.585h-.068l-2.721 1.738v-1.931l2.892-1.858h2.005z" fill="#EB4640"/></svg>