<svg width="50" height="50" fill="none" xmlns="http://www.w3.org/2000/svg"><rect width="50" height="50" rx="10" fill="#F8CC48"/><path d="M19.335 31.222c-.935 0-1.738-.237-2.409-.71-.666-.478-1.18-1.165-1.54-2.063-.356-.902-.534-1.987-.534-3.256.004-1.269.184-2.348.54-3.239.36-.893.873-1.575 1.54-2.045.67-.47 1.471-.704 2.403-.704.932 0 1.733.234 2.404.704.67.47 1.183 1.152 1.54 2.046.36.894.54 1.973.54 3.238 0 1.273-.18 2.36-.54 3.261-.357.898-.87 1.584-1.54 2.057-.667.474-1.468.71-2.404.71zm0-1.779c.727 0 1.301-.358 1.722-1.074.424-.72.636-1.778.636-3.176 0-.924-.096-1.7-.29-2.33-.193-.628-.465-1.102-.818-1.42a1.791 1.791 0 00-1.25-.483c-.723 0-1.295.36-1.716 1.08-.42.716-.632 1.767-.636 3.153-.004.928.089 1.708.278 2.341.194.633.466 1.11.819 1.432.352.318.77.477 1.255.477zm10.632 1.716c-.556-.004-1.1-.1-1.63-.29a3.836 3.836 0 01-1.432-.937c-.424-.436-.762-1.013-1.012-1.733-.25-.724-.373-1.62-.369-2.688 0-.996.106-1.884.318-2.664.213-.78.517-1.44.915-1.978a4.037 4.037 0 011.438-1.238 4.149 4.149 0 011.892-.427c.73 0 1.378.145 1.943.432a3.66 3.66 0 011.375 1.182c.348.496.564 1.057.648 1.682h-2.074a1.884 1.884 0 00-.654-1.068c-.325-.27-.738-.404-1.238-.404-.807 0-1.428.35-1.864 1.052-.432.7-.65 1.662-.653 2.886h.08c.185-.333.425-.62.72-.858a3.298 3.298 0 011-.551 3.536 3.536 0 011.188-.199 3.49 3.49 0 011.836.489c.545.325.977.774 1.295 1.346.318.568.475 1.22.471 1.955.004.765-.17 1.452-.522 2.062a3.793 3.793 0 01-1.472 1.432c-.629.349-1.361.52-2.199.517zm-.011-1.704c.413 0 .782-.1 1.108-.302.326-.2.583-.471.773-.812.189-.341.282-.724.278-1.148a2.262 2.262 0 00-.273-1.13 2.077 2.077 0 00-.755-.802 2.069 2.069 0 00-1.103-.295 2.096 2.096 0 00-1.55.665 2.294 2.294 0 00-.637 1.58c.004.405.098.778.284 1.119.186.34.441.613.767.818a2.04 2.04 0 001.108.306z" fill="#EB4640"/></svg>