<svg width="51" height="50" fill="none" xmlns="http://www.w3.org/2000/svg"><rect x=".333" width="50" height="50" rx="10" fill="#F8CC48"/><path d="M20.53 31.222c-.935 0-1.738-.237-2.409-.71-.666-.478-1.18-1.165-1.54-2.063-.355-.902-.533-1.987-.533-3.256.003-1.269.183-2.348.54-3.239.36-.893.872-1.575 1.54-2.045.67-.47 1.47-.704 2.402-.704.932 0 1.733.234 2.404.704.67.47 1.184 1.152 1.54 2.046.36.894.54 1.973.54 3.238 0 1.273-.18 2.36-.54 3.261-.356.898-.87 1.584-1.54 2.057-.667.474-1.468.71-2.404.71zm0-1.779c.728 0 1.302-.358 1.722-1.074.424-.72.637-1.778.637-3.176 0-.924-.097-1.7-.29-2.33-.194-.628-.466-1.102-.819-1.42a1.791 1.791 0 00-1.25-.483c-.723 0-1.295.36-1.715 1.08-.42.716-.633 1.767-.637 3.153-.004.928.09 1.708.279 2.341.193.633.466 1.11.818 1.432.352.318.77.477 1.256.477zM26.901 31v-1.523l4.04-3.96c.386-.39.708-.737.966-1.04a3.82 3.82 0 00.58-.88c.128-.285.193-.588.193-.91 0-.367-.084-.681-.25-.943a1.662 1.662 0 00-.688-.613 2.217 2.217 0 00-.994-.216c-.383 0-.718.08-1.006.238a1.642 1.642 0 00-.67.665c-.156.288-.233.63-.233 1.029h-2.006c0-.739.169-1.381.506-1.927a3.413 3.413 0 011.392-1.267c.595-.299 1.276-.448 2.045-.448.78 0 1.466.145 2.057.437.591.292 1.05.691 1.375 1.199.33.508.494 1.087.494 1.738 0 .436-.083.864-.25 1.285-.166.42-.46.886-.88 1.397-.417.512-1.002 1.131-1.756 1.858l-2.006 2.04v.08h5.069V31H26.9z" fill="#EB4640"/></svg>