<svg width="50" height="50" fill="none" xmlns="http://www.w3.org/2000/svg"><rect width="50" height="50" rx="10" fill="#F8CC48"/><path d="M19.335 31.222c-.935 0-1.738-.237-2.409-.71-.666-.478-1.18-1.165-1.54-2.063-.356-.902-.534-1.987-.534-3.256.004-1.269.184-2.348.54-3.239.36-.893.873-1.575 1.54-2.045.67-.47 1.471-.704 2.403-.704.932 0 1.733.234 2.404.704.67.47 1.183 1.152 1.54 2.046.36.894.54 1.973.54 3.238 0 1.273-.18 2.36-.54 3.261-.357.898-.87 1.584-1.54 2.057-.667.474-1.468.71-2.404.71zm0-1.779c.727 0 1.301-.358 1.722-1.074.424-.72.636-1.778.636-3.176 0-.924-.096-1.7-.29-2.33-.193-.628-.465-1.102-.818-1.42a1.791 1.791 0 00-1.25-.483c-.723 0-1.295.36-1.716 1.08-.42.716-.632 1.767-.636 3.153-.004.928.089 1.708.278 2.341.194.633.466 1.11.819 1.432.352.318.77.477 1.255.477zm10.41-10.239a4.777 4.777 0 011.626.296c.53.19 1.007.5 1.432.932.424.428.76 1.002 1.01 1.721.25.72.376 1.61.376 2.67.004 1-.102 1.895-.318 2.683-.212.784-.517 1.447-.915 1.988a4.037 4.037 0 01-1.438 1.239c-.56.284-1.19.426-1.892.426-.734 0-1.386-.144-1.954-.432a3.67 3.67 0 01-1.37-1.181 3.757 3.757 0 01-.642-1.716h2.074c.106.462.322.83.648 1.102.33.269.744.403 1.244.403.807 0 1.428-.35 1.864-1.05.436-.702.654-1.675.654-2.921h-.08a2.987 2.987 0 01-.722.863 3.25 3.25 0 01-1.005.551 3.58 3.58 0 01-1.182.194 3.522 3.522 0 01-1.841-.489 3.568 3.568 0 01-1.29-1.341c-.314-.568-.473-1.218-.477-1.949 0-.757.174-1.437.523-2.04a3.794 3.794 0 011.471-1.431c.629-.353 1.364-.525 2.205-.518zm.006 1.705c-.409 0-.778.1-1.108.301a2.138 2.138 0 00-.772.807 2.305 2.305 0 00-.279 1.13c.004.414.097.789.279 1.126.185.337.437.604.755.8.322.198.69.296 1.103.296a2.095 2.095 0 001.55-.665c.202-.212.357-.452.467-.721.113-.269.168-.553.165-.852 0-.398-.095-.765-.285-1.103a2.194 2.194 0 00-.767-.812 2.022 2.022 0 00-1.108-.307z" fill="#EB4640"/></svg>