<svg width="96" height="96" fill="none" xmlns="http://www.w3.org/2000/svg"><path d="M36.125 69.375L69.375 48l-33.25-21.375v42.75zM48 95.5c-6.57 0-12.746-1.248-18.525-3.743-5.78-2.492-10.806-5.876-15.081-10.15-4.275-4.276-7.659-9.303-10.151-15.082C1.748 60.745.5 54.571.5 48c0-6.57 1.248-12.746 3.743-18.525 2.492-5.78 5.876-10.806 10.15-15.081 4.276-4.275 9.303-7.66 15.082-10.156C35.255 1.746 41.429.5 48 .5c6.57 0 12.746 1.246 18.525 3.738 5.78 2.496 10.806 5.88 15.081 10.156 4.275 4.275 7.659 9.302 10.151 15.081C94.252 35.255 95.5 41.429 95.5 48c0 6.57-1.248 12.746-3.743 18.525-2.492 5.78-5.876 10.806-10.15 15.081-4.276 4.275-9.303 7.659-15.082 10.151C60.745 94.252 54.571 95.5 48 95.5z" fill="#fff"/></svg>