<svg width="71" height="70" fill="none" xmlns="http://www.w3.org/2000/svg"><rect x=".5" width="70" height="70" rx="10" fill="#EB4640"/><path d="M24.167 37.833c0-2.479.59-4.686 1.77-6.623 1.181-1.936 2.48-3.565 3.897-4.887C31.25 25 32.549 23.99 33.73 23.294l1.77-1.044v4.675c0 .874.295 1.564.886 2.071.59.507 1.251.761 1.983.762a2.77 2.77 0 001.152-.248c.366-.165.703-.436 1.008-.814l.638-.78c1.7.992 3.07 2.367 4.108 4.126 1.04 1.759 1.559 3.689 1.559 5.791 0 2.078-.508 3.973-1.523 5.685-1.016 1.713-2.35 3.064-4.002 4.053a7.076 7.076 0 00.939-1.86 6.69 6.69 0 00.336-2.14 6.79 6.79 0 00-.532-2.675 7.006 7.006 0 00-1.523-2.248L35.5 33.725l-4.993 4.923a7.216 7.216 0 00-1.559 2.267 6.672 6.672 0 00-.531 2.656c0 .755.112 1.47.337 2.143a7.07 7.07 0 00.938 1.859c-1.653-.992-2.987-2.344-4.002-4.056-1.015-1.712-1.523-3.607-1.523-5.684zm11.333-.141l3.01 2.94c.402.4.71.85.922 1.345.212.496.318 1.027.318 1.594 0 1.157-.413 2.142-1.24 2.956-.826.815-1.83 1.222-3.01 1.223-1.18 0-2.184-.407-3.01-1.223-.827-.815-1.24-1.8-1.24-2.956 0-.543.107-1.069.32-1.577a4.2 4.2 0 01.92-1.363l3.01-2.94z" fill="#F8CC48"/></svg>