<svg width="78" height="78" fill="none" xmlns="http://www.w3.org/2000/svg"><g filter="url(#filter0_d_103_298)"><rect x="4" width="70" height="70" rx="10" fill="#F8CC48"/><path d="M25.47 32.981l5.95-5.95c.331-.33.72-.566 1.17-.708a2.733 2.733 0 011.38-.07l1.842.389c-1.275 1.51-2.278 2.88-3.01 4.108-.732 1.228-1.44 2.715-2.125 4.462l-5.206-2.23zm7.261 3.223a21.698 21.698 0 012.214-4.817 23.409 23.409 0 013.382-4.25c2.078-2.077 4.45-3.63 7.119-4.657 2.668-1.028 5.159-1.34 7.473-.938.4 2.313.094 4.804-.921 7.473-1.016 2.668-2.562 5.04-4.64 7.118a23.8 23.8 0 01-4.25 3.383 21.476 21.476 0 01-4.852 2.249l-5.525-5.56zm9.775-4.25c.543.543 1.21.815 2.002.815.791 0 1.458-.272 2-.815.543-.543.815-1.21.815-2s-.272-1.458-.815-2.002c-.543-.543-1.21-.815-2.002-.815-.791 0-1.458.272-2 .815-.543.543-.815 1.21-.815 2.002 0 .791.272 1.458.815 2zm-.992 17.036l-2.266-5.207c1.747-.684 3.24-1.393 4.48-2.125 1.24-.732 2.616-1.735 4.126-3.01l.354 1.842c.095.472.071.938-.07 1.4a2.82 2.82 0 01-.709 1.185l-5.915 5.915zm-13.777-8.253c.827-.826 1.83-1.245 3.01-1.258 1.181-.012 2.185.396 3.011 1.223.826.826 1.24 1.83 1.24 3.01 0 1.181-.413 2.184-1.24 3.01-.59.591-1.576 1.099-2.956 1.524-1.381.425-3.288.803-5.72 1.133.33-2.432.707-4.332 1.132-5.702.425-1.37.933-2.35 1.523-2.94z" fill="#EB4640"/></g><defs><filter id="filter0_d_103_298" x="0" y="0" width="78" height="78" filterUnits="userSpaceOnUse" color-interpolation-filters="sRGB"><feFlood flood-opacity="0" result="BackgroundImageFix"/><feColorMatrix in="SourceAlpha" values="0 0 0 0 0 0 0 0 0 0 0 0 0 0 0 0 0 0 127 0" result="hardAlpha"/><feOffset dy="4"/><feGaussianBlur stdDeviation="2"/><feComposite in2="hardAlpha" operator="out"/><feColorMatrix values="0 0 0 0 0 0 0 0 0 0 0 0 0 0 0 0 0 0 0.25 0"/><feBlend in2="BackgroundImageFix" result="effect1_dropShadow_103_298"/><feBlend in="SourceGraphic" in2="effect1_dropShadow_103_298" result="shape"/></filter></defs></svg>