<svg width="66" height="66" fill="none" xmlns="http://www.w3.org/2000/svg"><rect width="66" height="66" rx="10" fill="#F8CC48"/><mask id="mask0_99_440" style="mask-type:luminance" maskUnits="userSpaceOnUse" x="15" y="14" width="35" height="34"><path d="M16.006 29.277a1.663 1.663 0 011.656-1.807h3.175a1.663 1.663 0 011.663 1.663v15.796a1.663 1.663 0 01-1.663 1.663h-1.8a1.663 1.663 0 01-1.657-1.52l-1.374-15.795zm11.482-.664c0-.695.432-1.316 1.06-1.612 1.37-.647 3.706-1.947 4.76-3.703 1.357-2.265 1.613-6.356 1.655-7.293.006-.131.002-.263.02-.392.225-1.624 3.358.272 4.56 2.278.652 1.087.736 2.516.667 3.633-.074 1.194-.424 2.346-.767 3.492l-.732 2.442h9.026a1.662 1.662 0 011.6 2.114l-4.464 15.809a1.662 1.662 0 01-1.6 1.21H29.15a1.663 1.663 0 01-1.663-1.662V28.613z" fill="#fff" stroke="#fff" stroke-width=".991" stroke-linecap="round" stroke-linejoin="round"/></mask><g mask="url(#mask0_99_440)"><path d="M12.524 10.844H52.43V50.75H12.524V10.844z" fill="#EB4640"/></g></svg>