<svg width="56" height="56" fill="none" xmlns="http://www.w3.org/2000/svg"><rect width="56" height="56" rx="8.485" fill="#F8CC48"/><path d="M32.568 32.97l-3.135 6.587a.85.85 0 01-1.384.22l-5.018-5.297a.85.85 0 00-.505-.258l-7.235-.946a.85.85 0 01-.636-1.248l3.487-6.41a.85.85 0 00.088-.56l-1.336-7.173a.85.85 0 01.992-.992l7.173 1.336a.85.85 0 00.56-.088l6.41-3.487a.85.85 0 011.248.637l.946 7.234a.85.85 0 00.258.505l5.297 5.018a.85.85 0 01-.22 1.384l-6.587 3.135a.85.85 0 00-.403.403zm1.13 2.73l2.003-2.004 6.01 6.01-2.004 2.005-6.01-6.011z" fill="#EB4640"/></svg>