<svg width="56" height="56" fill="none" xmlns="http://www.w3.org/2000/svg"><rect width="56" height="56" rx="8.485" fill="#F8CC48"/><path d="M15.25 15.25h25.5a1.417 1.417 0 011.416 1.417v22.666a1.417 1.417 0 01-1.416 1.417h-25.5a1.417 1.417 0 01-1.417-1.417V16.667a1.417 1.417 0 011.417-1.417zm7.791 15.583v2.834h3.542V36.5h2.833v-2.833h1.417a3.541 3.541 0 000-7.084h-5.667a.708.708 0 110-1.416h7.792v-2.834h-3.542V19.5h-2.833v2.833h-1.417a3.542 3.542 0 000 7.084h5.667a.709.709 0 110 1.416h-7.792z" fill="#EB4640"/></svg>